<svg xmlns="http://www.w3.org/2000/svg" viewBox="0 0 160 160" role="img" aria-label="Profile avatar">
  <circle cx="80" cy="80" r="76" fill="#c9573e"/>
  <path d="M38 135c8-27 25-41 42-41s34 14 42 41c-12 12-26 18-42 18s-30-6-42-18z" fill="#f8fafc"/>
  <path d="M68 96h24l-7 44H75l-7-44z" fill="#f2b705"/>
  <path d="M62 91c0 12 8 23 18 23s18-11 18-23V72H62v19z" fill="#efbd86"/>
  <path d="M47 74c1-28 12-43 34-43 23 0 34 15 35 43l-9 8V63c-16-8-35-9-54 0v19l-6-8z" fill="#2f3337"/>
  <path d="M53 65c14-12 38-12 54 0v21c0 17-11 31-27 31S53 103 53 86V65z" fill="#f2c28d"/>
  <path d="M54 64c14-15 37-16 53 0v15c-7-16-39-18-53 0V64z" fill="#2a2e31"/>
</svg>
